<?xml version="1.0" encoding="utf-8"?>
<!-- Generator: Adobe Illustrator 19.0.0, SVG Export Plug-In . SVG Version: 6.00 Build 0)  -->
<svg version="1.1" id="Layer_1" xmlns="http://www.w3.org/2000/svg" xmlns:xlink="http://www.w3.org/1999/xlink" x="0px" y="0px"
	 viewBox="-449 250.9 59.9 60.1" style="enable-background:new -449 250.9 59.9 60.1;" xml:space="preserve">
<style type="text/css">
	.st0{fill:#FFFFFF;}
</style>
<path id="XMLID_56_" class="st0" d="M-419,251.6c-16.2,0-29.4,13.1-29.4,29.3c0,16.2,13.2,29.3,29.4,29.3
	c16.2,0,29.4-13.1,29.4-29.3C-389.7,264.8-402.8,251.6-419,251.6z M-410.8,291.1c-0.5,1.1-1.3,2-2.2,2.8c-0.9,0.7-2.1,1.3-3.4,1.7
	c-1.3,0.4-2.7,0.6-4.2,0.6c-1.3,0-2.5-0.2-3.7-0.5s-2.3-0.9-3.3-1.6c-1-0.7-1.7-2.4-2.3-3.4c-0.6-1.1-0.9-2.6-0.9-4.6h5.9
	c0,1,0.1,1.8,0.3,2.3s0.5,1.2,0.9,1.6c0.4,0.3,0.9,0.8,1.4,1s1.1,0.4,1.7,0.4c0.7,0,1.3,0,1.9-0.2c0.6-0.2,1-0.4,1.4-0.8
	c0.4-0.4,0.7-0.8,0.9-1.3s0.3-1.1,0.3-1.7c0-0.8-0.1-1.5-0.3-2c-0.2-0.6-0.6-1-1-1.4s-0.9-1.5-1.6-1.7c-0.6-0.2-1.3-1.1-2-1.1h-6.2
	v-4h6.2c1.5,0,2.6,0.2,3.3-0.6c0.7-0.8,1.1-1.5,1.1-2.7c0-0.5-0.1-0.9-0.2-1.4c-0.2-0.5-0.4-0.8-0.8-1.1c-0.3-0.3-0.8-0.6-1.3-0.8
	c-0.5-0.2-1.1-0.3-1.8-0.3c-0.5,0-1.1,0.1-1.6,0.2c-0.5,0.2-0.9,0.4-1.3,0.7s-0.7-0.1-0.9,0.3c-0.2,0.4-0.3,0.6-0.3,0.6h-5.9
	c0-1,0.3-1.6,0.8-2.6c0.5-1,1.2-1.5,2.1-2.2c0.9-0.7,1.9-1.1,3.1-1.4c1.2-0.4,2.5-0.5,3.8-0.5c1.5,0,2.9,0.2,4.1,0.6
	c1.2,0.4,2.3,0.9,3.2,1.6c0.9,0.7,1.6,1.6,2.1,2.7c0.5,1.1,0.7,2.3,0.7,3.7c0,0.6-0.1,1.3-0.3,1.9c-0.2,0.6-0.5,1.2-0.9,1.8
	c-0.4,0.6-0.9,1.1-1.4,1.5c-0.6,0.5-1.2,0.9-1.9,1.2c1.7,0.6,2.9,1.5,3.8,2.7c0.8,1.2,1.2,2.6,1.2,4.3
	C-410,288.7-410.3,290-410.8,291.1z"/>
</svg>
