<?xml version="1.0" encoding="utf-8"?>
<!-- Generator: Adobe Illustrator 19.0.0, SVG Export Plug-In . SVG Version: 6.00 Build 0)  -->
<svg version="1.1" id="Layer_1" xmlns="http://www.w3.org/2000/svg" xmlns:xlink="http://www.w3.org/1999/xlink" x="0px" y="0px"
	 viewBox="-449 250.9 59.9 60.1" style="enable-background:new -449 250.9 59.9 60.1;" xml:space="preserve">
<style type="text/css">
	.st0{fill:#FFFFFF;}
</style>
<path id="XMLID_79_" class="st0" d="M-419,251.6c-16.2,0-29.3,13.1-29.3,29.3c0,16.2,13.1,29.3,29.3,29.3
	c16.2,0,29.3-13.1,29.3-29.3C-389.7,264.8-402.9,251.6-419,251.6z M-409,294h-20v-3.3l9.2-10.3c0.7-0.8,1.1-1.5,1.6-2.2
	s0.8-1.3,1.1-1.8s0.5-1.1,0.6-1.5c0.1-0.5,0.2-0.9,0.2-1.4c0-1.3-0.4-2.4-1-3.1c-0.7-0.8-1.6-1.1-2.9-1.1c-0.7,0-1.3,0.1-1.9,0.4
	s-1,0.6-1.4,1c-0.4,0.4-0.6,0.8-0.8,1.4s-0.3,0.9-0.3,1.9h-5.9c0-1,0.2-2.5,0.7-3.6s1.2-2.2,2.1-3s2-1.6,3.3-2.1s2.7-0.8,4.3-0.8
	c1.6,0,3,0.2,4.2,0.6c1.2,0.4,2.2,1,3,1.7s1.4,1.6,1.9,2.7s0.6,2.2,0.6,3.5c0,1-0.2,2-0.5,2.9s-0.8,1.9-1.3,2.8s-1.3,1.9-2.1,2.8
	s-1.7,1.9-2.7,3l-5.3,5.6h13.4V294z"/>
</svg>
